<?xml version="1.0" encoding="UTF-8"?>
<svg width="1314px" height="842px" viewBox="0 0 1314 842" version="1.1" xmlns="http://www.w3.org/2000/svg" xmlns:xlink="http://www.w3.org/1999/xlink">
    <!-- Generator: Sketch 59.1 (86144) - https://sketch.com -->
    <title>hubble-stack-prototype-vec</title>
    <desc>Created with Sketch.</desc>
    <g id="Page-1" stroke="none" stroke-width="1" fill="none" fill-rule="evenodd">
        <g id="hubble-stack-prototype-vec" transform="translate(0.000000, 3.000000)">
            <g id="magento-2" transform="translate(0.000000, 60.000000)" fill="#EC6737" fill-rule="nonzero">
                <path d="M99.58575,62.2065093 L99.58575,180.343305 L87.9443125,187.443505 L76.2939375,180.305571 L76.2939375,62.2977574 L46.1278125,80.8327861 L46.1278125,181.860905 L87.9443125,207.394595 L130.114875,181.679095 L130.114875,80.7682949 L99.58575,62.2065093 Z M87.9443125,0 L0,53.1722607 L0,154.213415 L22.8408125,167.641294 L22.8408125,66.5905348 L87.9621875,27.0753025 L153.144063,66.5329044 L153.412875,66.6858993 L153.384,167.490357 L176,154.213415 L176,53.1722607 L87.9443125,0 Z" id="Shape"></path>
            </g>
            <g id="elastic_color" transform="translate(439.000000, 103.000000)" fill-rule="nonzero">
                <g id="Group">
                    <path d="M46.4764261,51.4984393 L75.1647585,64.5895202 L104.109542,39.204 C104.528809,37.1099306 104.733551,35.0221561 104.733551,32.8371618 C104.733551,14.9760231 90.2185337,0.44483237 72.373839,0.44483237 C61.6986069,0.44483237 51.7417186,5.70588439 45.689602,14.5276936 L40.8750213,39.5292312 L46.4764261,51.4984393 Z" id="Path" fill="#FFD300"></path>
                    <path d="M16.779757,81.9065087 C16.3604902,84.000578 16.1459653,86.1729827 16.1459653,88.3705665 C16.1459653,106.277168 30.7029094,120.847526 48.5965187,120.847526 C59.359098,120.847526 69.3649007,115.537514 75.4072344,106.62478 L80.1861774,81.7078728 L73.8091291,69.5113526 L45.0068959,56.3713121 L16.779757,81.9065087 Z" id="Path" fill="#2BB5AF"></path>
                    <path d="M16.5980747,32.2132775 L36.2588936,36.8595376 L40.5668602,14.4850289 C37.8800587,12.4301272 34.5636581,11.3047572 31.1522237,11.3047572 C22.6082646,11.3047572 15.6596158,18.2633064 15.6596158,26.8151387 C15.6596158,28.7042775 15.9747647,30.5157803 16.5980747,32.2132775" id="Path" fill="#E9458F"></path>
                    <path d="M14.8916588,36.900104 C6.10732005,39.8131965 0,48.2412312 0,57.5113699 C0,66.5381098 5.5776463,74.5982486 13.949706,77.7883121 L41.533969,52.832237 L36.4692258,42.0009884 L14.8916588,36.900104 Z" id="Path" fill="#2AA7E0"></path>
                    <path d="M80.4510143,106.624081 C83.1475988,108.698566 86.4479274,109.830231 89.8167364,109.830231 C98.3606954,109.830231 105.309344,102.875179 105.309344,94.3233468 C105.309344,92.4377052 104.994195,90.6262023 104.370187,88.9287052 L84.7261383,84.3279075 L80.4510143,106.624081 Z" id="Path" fill="#9BC31B"></path>
                    <path d="M84.4480247,79.1738671 L106.073807,84.2369827 C114.860941,81.330185 120.96896,72.8986532 120.96896,63.6250173 C120.96896,54.6150636 115.378037,46.5640173 106.989905,43.3837457 L78.7040692,68.1866474 L84.4480247,79.1738671 Z" id="Path" fill="#0075A1"></path>
                </g>
                <g id="Group" transform="translate(146.000000, 34.000000)" fill="#FFFFFF">
                    <path d="M33.1000727,53.3274419 L35.7357333,53.0574419 L35.9178182,58.3786047 C29.0105455,59.3393023 23.1029818,59.8213953 18.1951273,59.8213953 C11.6513212,59.8213953 7.01624242,57.9432558 4.28989091,54.184186 C1.56353939,50.4272093 0.200363636,44.5786047 0.200363636,36.6418605 C0.200363636,20.8283721 6.53115152,12.9209302 19.1955394,12.9209302 C25.3147152,12.9209302 29.8886303,14.6204651 32.9193939,18.0167442 C35.9487515,21.4144186 37.4637818,26.7516279 37.4637818,34.0262791 L37.1003152,39.1674419 L7.10763636,39.1674419 C7.10763636,44.1593023 8.01665455,47.8569767 9.83398788,50.2611628 C11.6513212,52.6667442 14.8170667,53.8688372 19.3312242,53.8688372 C23.8446788,53.8688372 28.4340606,53.6888372 33.1000727,53.3274419 Z M30.646497,33.7562791 C30.646497,28.2244186 29.7515394,24.3167442 27.9651394,22.0311628 C26.1773333,19.7462791 23.268897,18.6034884 19.2405333,18.6034884 C15.2100606,18.6034884 12.1814061,19.8076744 10.1524606,22.2111628 C8.12140606,24.6167442 7.07670303,28.4651163 7.01694545,33.7562791 L30.646497,33.7562791 L30.646497,33.7562791 Z" id="Shape"></path>
                    <polygon id="Path" points="46.9680485 59.4732558 46.9680485 0.109534884 53.7846303 0.109534884 53.7846303 59.4732558"></polygon>
                    <path d="M96.7109576,27.4423256 L96.7109576,50.1906977 C96.7109576,52.4448837 102.367539,52.3548837 102.367539,52.3548837 L102.019539,58.3311628 C97.231903,58.3311628 93.2689212,58.7253488 90.8870545,56.4404651 C85.4343515,58.8453488 79.9872727,59.8213953 74.5345697,59.8213953 C70.3536485,59.8213953 67.1731394,58.6486047 64.9916364,56.3044186 C62.8101333,53.9595349 61.7197333,50.5925581 61.7197333,46.202093 C61.7197333,41.8137209 62.8403636,38.5806977 65.0823273,36.5065116 C67.3235879,34.4323256 70.8380364,33.1555814 75.6249697,32.6734884 L89.8936727,31.3206977 L89.8936727,27.4423256 C89.8936727,24.3760465 89.226497,22.1811628 87.8942545,20.8576744 C86.5606061,19.5362791 84.7432727,18.8734884 82.4415515,18.8734884 L64.5318545,18.8881395 L64.5318545,12.9209302 L81.9866909,12.9209302 C87.1356848,12.9209302 90.8779152,14.0937209 93.2112727,16.437907 C95.5432242,18.784186 96.7109576,22.4525581 96.7109576,27.4423256 Z M68.717697,45.842093 C68.717697,51.3746512 71.0201212,54.1395349 75.6249697,54.1395349 C79.7447273,54.1395349 83.8047273,53.4488372 87.8035636,52.0653488 L89.8936727,51.3432558 L89.8936727,36.4618605 L76.4425939,37.7246512 C73.7162424,37.9653488 71.7463515,38.7474419 70.5350303,40.0695349 C69.3230061,41.3923256 68.717697,43.3165116 68.717697,45.842093 Z" id="Shape"></path>
                    <path d="M123.31503,18.964186 C116.710061,18.964186 113.40863,21.2497674 113.40863,25.8188372 C113.40863,27.9244186 114.165794,29.4125581 115.680824,30.2832558 C117.195152,31.1560465 120.648436,32.0581395 126.042085,32.9895349 C131.434327,33.9223256 135.251079,35.2304651 137.493745,36.9125581 C139.735006,38.5967442 140.856339,41.7537209 140.856339,46.3827907 C140.856339,51.0139535 139.356776,54.4095349 136.357648,56.5744186 C133.358521,58.7393023 128.980048,59.8213953 123.225042,59.8213953 C119.467345,59.8213953 106.930206,58.4413953 106.930206,58.4413953 L107.293673,52.5788372 C114.499733,53.2681395 119.709891,53.7788372 123.225042,53.7788372 C126.738085,53.7788372 129.419442,53.2234884 131.268412,52.11 C133.115976,50.997907 134.040461,49.1337209 134.040461,46.5181395 C134.040461,43.9025581 133.252364,42.1290698 131.677576,41.1969767 C130.101382,40.2655814 126.647394,39.3788372 121.316315,38.5360465 C115.98383,37.6946512 112.196606,36.4618605 109.955345,34.8376744 C107.713382,33.214186 106.592752,30.2086047 106.592752,25.8188372 C106.592752,21.4304651 108.152073,18.1834884 111.273527,16.0786047 C114.393576,13.9744186 118.286255,12.9216279 122.952267,12.9216279 C126.647394,12.9216279 139.472073,13.8544186 139.472073,13.8544186 L139.472073,19.7525581 C132.724388,19.4462791 127.191539,18.964186 123.31503,18.964186 Z" id="Path"></path>
                    <path d="M173.731442,19.6855814 L159.280655,19.6855814 L159.280655,41.2416279 C159.280655,46.414186 159.658182,49.8104651 160.416752,51.4332558 C161.173915,53.0567442 162.975782,53.8688372 165.824461,53.8688372 L173.912824,53.3274419 L174.367685,58.9193023 C170.307685,59.58 167.217164,59.9113953 165.096824,59.9113953 C160.371055,59.9113953 157.099152,58.77 155.281115,56.4837209 C153.463782,54.1995349 152.554764,49.8404651 152.554764,43.405814 L152.554764,19.6848837 L146.101648,19.6848837 L146.101648,13.8223256 L152.554764,13.8223256 L152.554764,0.0223255814 L159.279952,0.0223255814 L159.279952,13.8223256 L173.730739,13.8223256 L173.730739,19.6855814 L173.731442,19.6855814 Z" id="Path"></path>
                    <path d="M183.207588,8.06162791 L183.207588,0.214883721 L190.02417,0.214883721 L190.02417,8.06162791 L183.207588,8.06162791 Z M183.207588,59.4732558 L183.207588,13.8230233 L190.02417,13.8230233 L190.02417,59.4732558 L183.207588,59.4732558 Z" id="Shape"></path>
                    <path d="M219.54863,12.9216279 C221.548048,12.9216279 224.940873,13.2823256 229.727806,14.0037209 L231.908606,14.2744186 L231.63583,19.7755814 C226.787733,19.2348837 223.213527,18.964186 220.911103,18.964186 C215.76,18.964186 212.261018,20.1816279 210.413455,22.6172093 C208.564485,25.0527907 207.641406,29.5618605 207.641406,36.1465116 C207.641406,42.7304651 208.504727,47.3162791 210.23137,49.9011628 C211.958012,52.4867442 215.548388,53.7795349 221.001794,53.7795349 L231.726521,52.9681395 L231.999297,58.56 C226.364509,59.4013953 222.152655,59.8227907 219.366545,59.8227907 C212.277188,59.8227907 207.384097,58.0193023 204.688679,54.4109302 C201.991855,50.8032558 200.644145,44.7153488 200.644145,36.1472093 C200.644145,27.5783721 202.098012,21.5665116 205.006448,18.1081395 C207.915588,14.6504651 212.762279,12.9216279 219.54863,12.9216279 Z" id="Path"></path>
                </g>
            </g>
            <g id="logomark.min" transform="translate(540.000000, 327.000000)" fill="#FF2D20">
                <path d="M175.900753,40.9469414 C175.966014,41.1882446 176,41.4370429 176,41.6869972 L176,80.5381598 C176,81.5531599 175.456469,82.4906076 174.5751,82.9955702 L141.93354,101.769619 L141.93354,138.981328 C141.93354,139.994036 141.394772,140.928843 140.515729,141.438738 L72.3792645,180.622749 C72.2233053,180.711272 72.0531679,180.767927 71.8830306,180.828123 C71.8192291,180.849369 71.7589721,180.888319 71.6916261,180.906024 C71.2153264,181.031325 70.7146691,181.031325 70.2383695,180.906024 C70.1603899,180.884778 70.0894993,180.842287 70.0150642,180.813959 C69.859105,180.757304 69.6960567,180.707731 69.5471865,180.622749 L1.42490031,141.438738 C0.544068113,140.933237 0,139.99613 0,138.981328 L0,22.42784 C0,22.1728926 0.0354452813,21.925027 0.0992467878,21.6842432 C0.120513957,21.6028017 0.17013735,21.528442 0.198493576,21.4470004 C0.251661498,21.2982811 0.301284891,21.1460208 0.37926451,21.0079242 C0.432432432,20.9158599 0.510412051,20.8415002 0.574213558,20.7565177 C0.655737705,20.6432077 0.730172796,20.5263568 0.825875055,20.4272105 C0.907399202,20.345769 1.01373505,20.285573 1.10589278,20.2147543 C1.20868409,20.1297718 1.30084183,20.0377074 1.41781125,19.9704296 L1.42135578,19.9704296 L35.4842712,0.378424327 C36.3620058,-0.126141442 37.442159,-0.126141442 38.3198937,0.378424327 L72.382809,19.9704296 L72.3898981,19.9704296 C72.503323,20.0412484 72.5990253,20.1297718 72.7018166,20.2112134 C72.7939743,20.2820321 72.8967656,20.345769 72.9782898,20.4236696 C73.0775366,20.5263568 73.1484271,20.6432077 73.2334958,20.7565177 C73.2937528,20.8415002 73.3752769,20.9158599 73.4249003,21.0079242 C73.5064245,21.1495617 73.5525033,21.2982811 73.6092158,21.4470004 C73.637572,21.528442 73.6871954,21.6028017 73.7084626,21.6877842 C73.773723,21.9290874 73.8070887,22.1778857 73.8077093,22.42784 L73.8077093,95.2259671 L102.192291,78.8987059 L102.192291,41.6834563 C102.192291,41.4355907 102.227736,41.1841842 102.291537,40.9469414 C102.316349,40.8619589 102.362428,40.7875992 102.390784,40.7061577 C102.447497,40.5574383 102.49712,40.405178 102.5751,40.2670814 C102.628268,40.1750171 102.706247,40.1006574 102.766504,40.0156749 C102.851573,39.9023649 102.922463,39.785514 103.02171,39.6863677 C103.103234,39.6049262 103.206026,39.5447303 103.298183,39.4739115 C103.404519,39.388929 103.496677,39.2968647 103.610102,39.2295869 L103.613646,39.2295869 L137.680106,19.6375815 C138.557646,19.1322888 139.638189,19.1322888 140.515729,19.6375815 L174.578644,39.2295869 C174.699158,39.3004056 174.791316,39.388929 174.897652,39.4703706 C174.986265,39.5411893 175.089056,39.6049262 175.17058,39.6828268 C175.269827,39.785514 175.340718,39.9023649 175.425786,40.0156749 C175.489588,40.1006574 175.567568,40.1750171 175.617191,40.2670814 C175.698715,40.405178 175.744794,40.5574383 175.801506,40.7061577 C175.833407,40.7875992 175.879486,40.8619589 175.900753,40.9469414 Z M170.321666,78.8987059 L170.321666,46.5911952 L158.401418,53.4464496 L141.93354,62.9184565 L141.93354,95.2259671 L170.32521,78.8987059 L170.321666,78.8987059 Z M136.258751,137.341874 L136.258751,105.013117 L120.060257,114.254963 L73.8041648,140.627863 L73.8041648,173.26114 L136.258751,137.341874 Z M5.67833407,27.332038 L5.67833407,137.341874 L68.1258307,173.257599 L68.1258307,140.631404 L35.5019938,122.186663 L35.4913602,122.179581 L35.4771821,122.172499 C35.3673017,122.108762 35.275144,122.016698 35.1723527,121.938797 C35.0837395,121.867978 34.9809482,121.811323 34.9029685,121.733423 L34.8958795,121.7228 C34.8037218,121.634276 34.7399202,121.524507 34.6619406,121.425361 C34.5910501,121.329756 34.5059814,121.248314 34.4492689,121.149168 L34.4457244,121.138545 C34.3819229,121.032317 34.3429331,120.904843 34.2968542,120.784452 C34.2507754,120.678223 34.1905184,120.579077 34.1621622,120.465767 L34.1621622,120.462226 C34.1267169,120.327671 34.1196278,120.186033 34.1054497,120.047937 C34.0912716,119.941708 34.0629154,119.83548 34.0629154,119.729252 L34.0629154,119.72217 L34.0629154,43.6592992 L17.5985822,34.1837514 L5.67833407,27.3355789 L5.67833407,27.332038 Z M36.9056269,6.10766065 L8.52459016,22.42784 L36.8985379,38.7480194 L65.2760301,22.4242991 L36.8985379,6.10766065 L36.9056269,6.10766065 Z M51.6650421,107.959177 L68.1293753,98.4907112 L68.1293753,27.332038 L56.2091272,34.1872923 L39.7412494,43.6592992 L39.7412494,114.817972 L51.6650421,107.959177 Z M139.097918,25.3668179 L110.720425,41.6869972 L139.097918,58.0071766 L167.471865,41.6834563 L139.097918,25.3668179 Z M136.258751,62.9184565 L119.790873,53.4464496 L107.870625,46.5911952 L107.870625,78.8987059 L124.334958,88.3671718 L136.258751,95.2259671 L136.258751,62.9184565 Z M70.9614533,135.723665 L112.584847,111.985223 L133.391227,100.123083 L105.035002,83.8135266 L72.3863536,102.591116 L42.6300399,119.704466 L70.9614533,135.723665 Z" id="Shape"></path>
            </g>
            <g id="Vue.js_Logo_2" transform="translate(540.000000, 610.000000)" fill-rule="nonzero">
                <g id="Group" transform="translate(88.000000, 77.000000) scale(-1, 1) rotate(-180.000000) translate(-88.000000, -77.000000) ">
                    <g transform="translate(0.053333, 0.008895)" fill="#41B883" id="Path">
                        <polygon points="107.555556 152.110465 87.4053333 117.183767 67.2551111 152.110465 0.152 152.110465 87.4053333 0.871744186 174.658667 152.110465"></polygon>
                    </g>
                    <g transform="translate(34.720000, 60.497267)" fill="#34495E" id="Path">
                        <polygon points="72.8888889 91.622093 52.7386667 56.6953953 32.5884444 91.622093 0.386666667 91.622093 52.7386667 0.880639535 105.090667 91.622093"></polygon>
                    </g>
                </g>
            </g>
            <g id="hubble_logo" transform="translate(1004.000000, 0.000000)" fill="#FFFFFF">
                <path d="M243.104074,20.6481814 C230.39507,20.6481814 220.483467,30.2130833 220.483467,42.8291037 C220.483467,55.4451242 230.30987,65.0100261 244.282674,65.0100261 C248.429075,65.0100261 252.305677,64.1727424 255.940878,62.4697925 C258.951279,61.0648589 260.087279,57.3467516 258.525278,54.4233543 C257.133678,51.7979732 254.038077,50.6910557 251.226476,51.6560607 C249.195876,52.3514319 247.065875,52.7345956 244.793874,52.7345956 C241.982273,52.7345956 239.639273,52.1527544 237.892672,50.9464982 C236.557872,50.024067 237.239472,47.9095709 238.872472,47.9095709 L256.139678,47.9095709 C260.101479,47.9095709 263.33908,44.6739661 263.35328,40.7146076 C263.33908,29.9576408 255.628478,20.6481814 243.104074,20.6481814 Z M247.449275,38.4156253 L237.338872,38.4156253 C236.060872,38.4156253 235.223071,37.0106916 235.876272,35.9037742 C237.367272,33.4203056 239.767073,32.0579456 242.507674,32.0579456 C245.447074,32.0579456 248.031475,33.5906006 249.068076,36.1592166 C249.494076,37.2519428 248.613675,38.4156253 247.449275,38.4156253 Z M214.803465,7.35098093 L214.803465,57.6021941 C214.803465,61.6892738 211.537464,64.9958349 207.518863,64.9958349 C203.500262,64.9958349 200.234261,61.6892738 200.234261,57.6021941 L200.234261,7.35098093 C200.234261,3.26390118 203.500262,0.0708701326 207.518863,0.0708701326 C211.551664,0.0708701326 214.803465,3.26390118 214.803465,7.35098093 Z M89.9570273,28.9358708 L89.9570273,44.2624199 C89.9570273,56.8784404 81.1530246,64.9958349 69.296021,64.9958349 C57.3538174,64.9958349 48.5498147,56.8642491 48.5498147,44.2624199 L48.5498147,28.9358708 C48.5498147,24.9197473 51.8158157,21.65576 55.8344169,21.65576 C59.8530182,21.65576 63.1190192,24.9197473 63.1190192,28.9358708 L63.1190192,45.4402936 C63.1190192,49.0732533 65.7460199,51.6134869 69.296021,51.6134869 C72.7750221,51.6134869 75.3878229,49.0732533 75.3878229,45.4402936 L75.3878229,28.9358708 C75.3878229,24.9197473 78.6538239,21.65576 82.6724251,21.65576 C86.6910263,21.65576 89.9570273,24.9197473 89.9570273,28.9358708 Z M26.8522081,41.0410063 C26.8522081,37.2377516 24.2252073,34.7826655 20.6752063,34.7826655 C17.1110052,34.7826655 14.5834044,37.2377516 14.5834044,41.0410063 L14.5834044,57.7157241 C14.5834044,61.7318476 11.3174034,64.9958349 7.29880221,64.9958349 C3.26600099,64.9958349 0,61.7460388 0,57.7157241 L0.0426000129,7.33678968 C0.0426000129,3.32066618 3.308601,0.0566788835 7.32720222,0.0566788835 C11.3458034,0.0566788835 14.6118044,3.32066618 14.6118044,7.33678968 L14.5692044,19.0587615 C14.5692044,21.65576 17.1394052,23.5573874 19.5818059,22.67753 C21.3994065,22.0105413 23.4300071,21.6415688 25.5884078,21.6415688 C34.9888106,21.6415688 41.4214126,28.4959421 41.4214126,38.912319 L41.4214126,57.7015328 C41.4214126,61.7176563 38.1554116,64.9816436 34.1368104,64.9816436 C30.1182091,64.9816436 26.8522081,61.7176563 26.8522081,57.7015328 L26.8522081,41.0410063 Z M174.234053,20.6481814 C172.061452,20.6481814 170.101852,20.9745801 168.355251,21.5706125 C165.91285,22.4078962 163.38525,20.5488426 163.38525,17.9660353 L163.38525,7.35098093 C163.38525,3.33485743 160.119249,0.0708701326 156.100647,0.0708701326 C152.082046,0.0708701326 148.816045,3.33485743 148.816045,7.35098093 L148.816045,52.9616556 C148.816045,59.6031602 154.212047,64.9958349 160.857649,64.9958349 C161.553449,64.9958349 162.107249,64.4281849 162.107249,63.7470049 C162.107249,62.66847 163.35685,61.1074326 164.18045,61.8028038 C166.708051,63.9172999 170.059252,65.0100261 174.219853,65.0100261 C186.076856,65.0100261 194.540059,55.8708617 194.540059,42.9142512 C194.540059,29.9576408 186.091056,20.6481814 174.234053,20.6481814 Z M171.351452,51.7979732 C167.290251,51.7979732 163.143849,49.0874446 163.143849,42.9142512 C163.143849,36.8262054 167.205051,33.8602343 171.351452,33.8602343 C175.583053,33.8602343 179.658455,36.9113528 179.658455,42.8291037 C179.658455,48.7468546 175.668253,51.7979732 171.351452,51.7979732 Z M143.150243,42.9142512 C143.150243,29.9576408 134.687041,20.6481814 122.830037,20.6481814 C120.671637,20.6481814 118.712036,20.9745801 116.979635,21.5706125 C114.537235,22.4078962 111.995434,20.5488426 111.995434,17.951844 L111.995434,7.35098093 C111.995434,3.33485743 108.729433,0.0708701326 104.710832,0.0708701326 C100.692231,0.0708701326 97.4262296,3.33485743 97.4262296,7.35098093 L97.4262296,52.9616556 C97.4262296,59.6031602 102.822231,64.9958349 109.467833,64.9958349 C110.163633,64.9958349 110.717434,64.4281849 110.717434,63.7470049 C110.717434,62.66847 111.967034,61.1074326 112.790634,61.8028038 C115.318235,63.9172999 118.669436,65.0100261 122.830037,65.0100261 C134.672841,64.9958349 143.150243,55.8566704 143.150243,42.9142512 Z M119.933236,51.7979732 C115.872035,51.7979732 111.725634,49.0874446 111.725634,42.9142512 C111.725634,36.8262054 115.786835,33.8602343 119.933236,33.8602343 C124.164838,33.8602343 128.240239,36.9113528 128.240239,42.8291037 C128.240239,48.7468546 124.264238,51.7979732 119.933236,51.7979732 Z M5.36760163,93.9176006 C5.36760163,97.1248229 7.62540231,99.5657177 10.8062033,99.5657177 C12.8510039,99.5657177 14.2994043,98.5439478 15.4638047,96.9545279 L18.0766055,98.9696852 C16.557205,101.41058 14.0154043,103 10.7636033,103 C5.63740171,103 1.57620048,99.0406415 1.57620048,93.9317918 C1.57620048,88.8513246 5.63740171,84.8919661 10.7636033,84.8919661 C14.0438043,84.8919661 16.599805,86.481386 18.0766055,88.9222809 L15.4638047,90.9658207 C14.3278043,89.3764008 12.8794039,88.3120572 10.8062033,88.3120572 C7.62540231,88.2978659 5.36760163,90.7671433 5.36760163,93.9176006 Z M35.4432108,84.8777749 C30.3170092,84.8777749 26.298408,88.8371334 26.298408,93.9176006 C26.298408,99.0406415 30.3596092,102.957426 35.4432108,102.985809 C40.5268123,102.985809 44.6590135,98.9980677 44.6590135,93.9176006 C44.6590135,88.8371334 40.5268123,84.8777749 35.4432108,84.8777749 Z M35.4432108,99.5657177 C32.3334098,99.5657177 30.0756091,97.1673966 30.0756091,93.9459831 C30.0756091,90.7387608 32.3334098,88.2978659 35.4858108,88.2552922 C38.5246117,88.2978659 40.8534124,90.696187 40.8534124,93.9459831 C40.8392124,97.1248229 38.5104117,99.5657177 35.4432108,99.5657177 Z M80.4856244,91.7605307 L80.4856244,102.602645 L76.7368233,102.602645 L76.7368233,92.2997982 C76.7368233,89.9014771 75.3878229,88.2694834 73.1300222,88.2694834 C70.8722215,88.2694834 69.310221,89.9298596 69.310221,92.1153119 L69.310221,102.602645 L65.6040199,102.602645 L65.6040199,92.2997982 C65.6040199,89.9014771 64.1840195,88.2694834 61.9688188,88.2694834 C59.7110181,88.2694834 58.1490176,89.8872858 58.1490176,92.2997982 L58.1490176,102.602645 L54.4428165,102.602645 L54.4428165,85.2609386 L57.9076176,85.2609386 L57.9076176,86.878741 C59.1146179,85.6015286 60.8470185,84.8635836 62.9202191,84.8635836 C65.3910198,84.8635836 67.1660204,85.9279273 68.1884207,87.5883035 C69.4238211,85.9988836 71.5112217,84.8635836 74.0530225,84.8635836 C78.1568237,84.8777749 80.4856244,87.7018334 80.4856244,91.7605307 Z M117.235236,91.7605307 L117.235236,102.602645 L113.486434,102.602645 L113.486434,92.2997982 C113.486434,89.9014771 112.137434,88.2694834 109.879633,88.2694834 C107.621833,88.2694834 106.059832,89.9298596 106.059832,92.1153119 L106.059832,102.602645 L102.353631,102.602645 L102.353631,92.2997982 C102.353631,89.9014771 100.933631,88.2694834 98.71843,88.2694834 C96.4606293,88.2694834 94.8986288,89.8872858 94.8986288,92.2997982 L94.8986288,102.602645 L91.1924277,102.602645 L91.1924277,85.2609386 L94.6572287,85.2609386 L94.6572287,86.878741 C95.8642291,85.6015286 97.5966296,84.8635836 99.6698302,84.8635836 C102.140631,84.8635836 103.915632,85.9279273 104.938032,87.5883035 C106.173432,85.9988836 108.260833,84.8635836 110.802634,84.8635836 C114.906435,84.8777749 117.235236,87.7018334 117.235236,91.7605307 Z M135.837241,84.8777749 C130.78204,84.8777749 126.862838,88.8655159 126.862838,93.9459831 C126.862838,99.069024 130.82464,102.985809 136.192241,102.985809 C138.947042,102.985809 141.275843,101.921465 143.121843,100.190133 L141.361043,97.6498991 C139.912642,98.9271115 138.322242,99.693439 136.305841,99.693439 C133.33804,99.693439 131.15124,98.0046803 130.65424,95.138048 L143.590444,95.138048 C143.689844,94.683928 143.874444,93.7614968 143.874444,92.8106831 C143.846044,88.2694834 140.466443,84.8777749 135.837241,84.8777749 Z M130.71104,92.2572244 C131.27904,89.6744171 133.25284,88.0140409 135.695241,88.0140409 C138.066642,88.0140409 140.083043,89.5325046 140.139843,92.2572244 L130.71104,92.2572244 Z M162.164049,85.0906436 C162.760449,85.0906436 163.18645,85.1615999 163.58405,85.2609386 L163.58405,88.5391171 L162.448049,88.5391171 C159.693248,88.5391171 157.364448,90.128537 157.364448,93.3357593 L157.364448,102.588454 L153.658247,102.588454 L153.658247,85.2609386 L157.123048,85.2609386 L157.123048,87.5173472 C158.344248,85.9279273 160.176049,85.0906436 162.164049,85.0906436 Z M174.773653,93.9176006 C174.773653,97.1248229 177.031454,99.5657177 180.212255,99.5657177 C182.257055,99.5657177 183.705456,98.5439478 184.869856,96.9545279 L187.482657,98.9696852 C185.963256,101.41058 183.421456,103 180.169655,103 C175.043453,103 170.982252,99.0406415 170.982252,93.9317918 C170.982252,88.8513246 175.043453,84.8919661 180.169655,84.8919661 C183.449856,84.8919661 186.005856,86.481386 187.482657,88.9222809 L184.869856,90.9658207 C183.733856,89.3764008 182.285455,88.3120572 180.212255,88.3120572 C177.031454,88.2978659 174.773653,90.7671433 174.773653,93.9176006 Z M204.664662,84.8777749 C199.609461,84.8777749 195.690259,88.8655159 195.690259,93.9459831 C195.690259,99.069024 199.652061,102.985809 205.019662,102.985809 C207.774463,102.985809 210.103264,101.921465 211.949264,100.190133 L210.188464,97.6498991 C208.740063,98.9271115 207.149663,99.693439 205.133262,99.693439 C202.165461,99.693439 199.978661,98.0046803 199.481661,95.138048 L212.417864,95.138048 C212.517264,94.683928 212.701865,93.7614968 212.701865,92.8106831 C212.687665,88.2694834 209.293864,84.8777749 204.664662,84.8777749 Z M199.552661,92.2572244 C200.120661,89.6744171 202.094461,88.0140409 204.536862,88.0140409 C206.908263,88.0140409 208.924663,89.5325046 208.981463,92.2572244 L199.552661,92.2572244 Z M273.520483,33.0513331 C273.222283,33.2925843 272.782083,33.3777318 272.327683,33.2358193 C271.504082,32.9945681 270.879282,32.1430931 270.921882,31.3625744 C270.936082,31.1922795 270.936082,30.0711708 270.921882,29.688007 C270.921882,24.6784961 269.118482,20.6056076 266.250081,17.7389753 C263.38168,14.872343 259.320479,13.0700543 254.293677,13.0700543 C253.910277,13.0558631 252.788477,13.0558631 252.618077,13.0700543 C251.822876,13.1268193 250.985076,12.4882131 250.743676,11.6651207 C250.615876,11.2110007 250.686876,10.771072 250.928276,10.4730557 C254.464077,6.20148975 263.04088,-1.05023855 280.350685,0.127635129 C281.216885,0.198591375 282.083086,0.610137599 282.736286,1.26293506 C283.375286,1.91573252 283.801286,2.78139871 283.872286,3.64706491 C285.050886,20.9461976 277.794684,29.5177121 273.520483,33.0513331 Z" id="Shape"></path>
            </g>
            <path d="M980.5,838.5 L275.5,838.5 L275.5,-2.5 L980.5,-2.5 L980.5,838.5 Z M975.5,2.5 L280.5,2.5 L280.5,833.5 L975.5,833.5 L975.5,2.5 Z" id="Rectangle" fill="#747474" fill-rule="nonzero"></path>
            <polygon id="Line" fill="#FFFFFF" fill-rule="nonzero" points="396.25 149.25 425.25 163.75 396.25 178.25 396.25 166.25 196.25 166.25 196.25 161.25 396.25 161.25"></polygon>
            <polygon id="Line" fill="#FFFFFF" fill-rule="nonzero" points="630 221 630 298 642 298 627.5 327 613 298 625 298 625 221"></polygon>
            <polygon id="Line" fill="#FFFFFF" fill-rule="nonzero" points="630 505 630 582 642 582 627.5 611 613 582 625 582 625 505"></polygon>
            <g id="devices-icon" transform="translate(1080.000000, 578.000000)" fill="#FFFFFF" fill-rule="nonzero">
                <path d="M222.3,105.107143 L222.3,19.4642857 C222.3,8.73167857 213.5523,0 202.8,0 L31.2,0 C20.4477,0 11.7,8.73167857 11.7,19.4642857 L11.7,77.8571429 C5.2494,77.8571429 0,83.0969286 0,89.5357143 L0,206.321429 C0,212.760214 5.2494,218 11.7,218 L97.5,218 C103.9506,218 109.2,212.760214 109.2,206.321429 L141.8859,206.321429 C145.5636,206.321429 148.9527,204.6475 151.1835,201.73175 C153.4143,198.816 154.1397,195.11 153.1725,191.571393 L145.5051,163.5 L167.7,163.5 L167.7,206.321429 C167.7,212.760214 172.9494,218 179.4,218 L222.3,218 C228.7506,218 234,212.760214 234,206.321429 L234,116.785714 C234,110.346929 228.7506,105.107143 222.3,105.107143 Z M101.4,206.321429 C101.4,208.466393 99.6489,210.214286 97.5,210.214286 L11.7,210.214286 C9.5511,210.214286 7.8,208.466393 7.8,206.321429 L7.8,198.535714 L101.4,198.535714 L101.4,206.321429 Z M101.4,190.75 L7.8,190.75 L7.8,105.107143 L101.4,105.107143 L101.4,190.75 Z M101.4,97.3214286 L7.8,97.3214286 L7.8,89.5357143 C7.8,87.39075 9.5511,85.6428571 11.7,85.6428571 L97.5,85.6428571 C99.6489,85.6428571 101.4,87.39075 101.4,89.5357143 L101.4,97.3214286 Z M145.6494,193.619036 C145.9731,194.798571 145.7313,196.032607 144.9864,197.005821 C144.2415,197.979036 143.1144,198.535714 141.8859,198.535714 L109.2,198.535714 L109.2,190.75 L144.8655,190.75 L145.6494,193.619036 Z M109.2,182.964286 L109.2,163.5 L137.4204,163.5 L142.74,182.964286 L109.2,182.964286 Z M167.7,155.714286 L109.2,155.714286 L109.2,132.357143 L167.7,132.357143 L167.7,155.714286 Z M167.7,116.785714 L167.7,124.571429 L109.2,124.571429 L109.2,89.5357143 C109.2,83.0969286 103.9506,77.8571429 97.5,77.8571429 L19.5,77.8571429 L19.5,19.4642857 C19.5,13.0255 24.7494,7.78571429 31.2,7.78571429 L202.8,7.78571429 C209.2506,7.78571429 214.5,13.0255 214.5,19.4642857 L214.5,105.107143 L179.4,105.107143 C172.9494,105.107143 167.7,110.346929 167.7,116.785714 Z M226.2,206.321429 C226.2,208.466393 224.4489,210.214286 222.3,210.214286 L179.4,210.214286 C177.2511,210.214286 175.5,208.466393 175.5,206.321429 L175.5,198.535714 L226.2,198.535714 L226.2,206.321429 Z M226.2,190.75 L175.5,190.75 L175.5,132.357143 L226.2,132.357143 L226.2,190.75 Z M226.2,124.571429 L175.5,124.571429 L175.5,116.785714 C175.5,114.64075 177.2511,112.892857 179.4,112.892857 L222.3,112.892857 C224.4489,112.892857 226.2,114.64075 226.2,116.785714 L226.2,124.571429 Z" id="Shape"></path>
                <polygon id="Rectangle" transform="translate(31.198663, 155.707378) rotate(-45.000000) translate(-31.198663, -155.707378) " points="20.1742164 151.800818 42.1281895 152.063095 42.2231096 159.613938 20.2691365 159.351661"></polygon>
                <polygon id="Rectangle" transform="translate(62.397317, 151.815312) rotate(-45.000000) translate(-62.397317, -151.815312) " points="29.3314373 147.888341 95.3684512 148.632894 95.463197 155.742284 29.4261831 154.997731"></polygon>
                <polygon id="Rectangle" transform="translate(58.495729, 128.463915) rotate(-45.000000) translate(-58.495729, -128.463915) " points="41.962081 124.552253 74.934447 124.940134 75.0293774 132.375577 42.0570113 131.987695"></polygon>
                <polygon id="Rectangle" transform="translate(196.940005, 153.768947) rotate(-45.000000) translate(-196.940005, -153.768947) " points="183.163027 149.859838 210.622046 150.185314 210.716982 157.678056 183.257964 157.352579"></polygon>
                <polygon id="Rectangle" transform="translate(204.738503, 169.356656) rotate(-45.000000) translate(-204.738503, -169.356656) " points="190.961526 165.447546 218.420544 165.773023 218.515481 173.265765 191.056462 172.940288"></polygon>
                <polygon id="Rectangle" transform="translate(116.994639, 58.393078) rotate(-45.000000) translate(-116.994639, -58.393078) " points="100.460991 54.4814163 133.433357 54.8692977 133.528288 62.3047403 100.555922 61.916859"></polygon>
                <polygon id="Rectangle" transform="translate(152.096847, 50.607491) rotate(-45.000000) translate(-152.096847, -50.607491) " points="135.563199 46.6958286 168.535565 47.08371 168.630495 54.5191526 135.658129 54.1312712"></polygon>
                <polygon id="Rectangle" transform="translate(124.794596, 77.860647) rotate(-45.000000) translate(-124.794596, -77.860647) " points="113.770149 73.9540867 135.724122 74.216364 135.819042 81.7672071 113.865069 81.5049298"></polygon>
                <polygon id="Rectangle" transform="translate(144.291781, 31.172846) rotate(-45.000000) translate(-144.291781, -31.172846) " points="133.24006 27.2662602 155.248582 27.5291682 155.343502 35.0794311 133.334981 34.8165232"></polygon>
                <rect id="Rectangle" x="27" y="15" width="8" height="8"></rect>
                <rect id="Rectangle" x="43" y="15" width="8" height="8"></rect>
                <rect id="Rectangle" x="58" y="15" width="8" height="8"></rect>
            </g>
            <polygon id="Line" fill="#FFFFFF" fill-rule="nonzero" points="1023.03246 672.936373 1052 687.501117 1022.96768 701.936301 1022.994 689.936 713.244422 689.244409 713.255591 684.244422 1023.005 684.936"></polygon>
        </g>
    </g>
</svg>