<svg height="32" viewBox="0 0 32 32" width="32" xmlns="http://www.w3.org/2000/svg"><path d="m16.0015 0c-4.3453786 0-4.8907176.019-6.59740204.09666667-1.70335108.078-2.86602986.34766666-3.88337379.74333333-1.05234429.40866667-1.94502026.95533333-2.83436285 1.845-.89000927.88933333-1.43668164 1.782-1.84668591 2.834-.39667079 1.01766667-.66667361 2.18066667-.74334107 3.88333333-.07633413 1.70666667-.09633434 2.25233337-.09633434 6.59766667s.01933353 4.889.09666767 6.5956667c.07833415 1.7033333.34800363 2.866.74334108 3.8833333.40900426 1.0523333.95567662 1.945 1.84535256 2.8343333.88900926.89 1.78168522 1.438 2.83336284 1.8466667 1.01801061.3956667 2.18102272.6653333 3.88404046.7433333 1.70668449.0776667 2.25169009.0966667 6.59673539.0966667 4.3457119 0 4.8893843-.019 6.5960687-.0966667 1.7033511-.078 2.8673632-.3476666 3.8853738-.7433333 1.052011-.4086667 1.9433536-.9566667 2.8323628-1.8466667.8900093-.8893333 1.4366817-1.782 1.8466859-2.834.3933375-1.0176666.6633403-2.1806666.7433411-3.8833333.0766675-1.7066667.0966677-2.2506667.0966677-6.596s-.0200002-4.8906667-.0966677-6.59733333c-.0800008-1.70333334-.3500036-2.866-.7433411-3.88333334-.4100042-1.05233333-.9566766-1.945-1.8466859-2.83433333-.8900092-.89-1.7800185-1.43666667-2.8333628-1.845-1.0200106-.39566667-2.1833561-.66533333-3.8867072-.74333333-1.7066844-.07766667-2.2500234-.09666667-6.5967353-.09666667zm-1.4353483 2.88333333c.4260045-.00066666.9013428 0 1.4353483 0 4.2720445 0 4.7783831.01533334 6.4654007.092 1.5600162.07133334 2.4066917.332 2.9706976.551.7466745.29 1.2790133.63666667 1.8386858 1.19666667.5600059.56.9066761 1.09333333 1.1973458 1.84.2190023.56333333.480005 1.41.5510058 2.97.0766674 1.6866667.0933343 2.1933333.0933343 6.4633333s-.0166669 4.7766667-.0933343 6.4633334c-.0713341 1.56-.3320035 2.4066666-.5510058 2.97-.290003.7466666-.6373399 1.2783333-1.1973458 1.838-.5600058.56-1.091678.9066666-1.8386858 1.1966666-.5633392.22-1.4106814.48-2.9706976.5513334-1.6866842.0766666-2.1933562.0933333-6.4654007.0933333-4.2723778 0-4.7787164-.0166667-6.46540067-.0933333-1.56001625-.072-2.40669173-.3326667-2.97103094-.5516667-.74667445-.29-1.28001334-.6366667-1.84001917-1.1966667s-.90667611-1.092-1.19734581-1.839c-.21900228-.5633333-.480005-1.41-.55100574-2.97-.07666746-1.6866666-.09200095-2.1933333-.09200095-6.466 0-4.2726666.01533349-4.7766666.09200095-6.4633333.07133408-1.56.33200346-2.40666667.55100574-2.97066667.29000302-.74666666.63733998-1.28 1.19734581-1.84s1.09334472-.90666666 1.84001917-1.19733333c.56400587-.22 1.41101469-.48 2.97103094-.55166667 1.47601537-.06666666 2.04802137-.08666666 5.03005237-.09zm9.9761039 2.65666667c-1.060011 0-1.92002.859-1.92002 1.91933333 0 1.06.860009 1.92 1.92002 1.92 1.0600111 0 1.92002-.86 1.92002-1.92s-.8600089-1.92-1.92002-1.92zm-8.5407556 2.24333333c-4.5377139 0-8.21675224 3.67899997-8.21675224 8.21666667s3.67903834 8.215 8.21675224 8.215c4.537714 0 8.2154189-3.6773333 8.2154189-8.215s-3.6780383-8.21666667-8.2157522-8.21666667zm0 2.88333337c2.945364 0 5.3333889 2.3876666 5.3333889 5.3333333 0 2.9453333-2.3880249 5.3333333-5.3333889 5.3333333-2.9456973 0-5.3333889-2.388-5.3333889-5.3333333 0-2.9456667 2.3876916-5.3333333 5.3333889-5.3333333z" fill="#212a49"/></svg>