
<svg width="20px" height="20px" viewBox="0 0 20 20" xmlns="http://www.w3.org/2000/svg"><g stroke="none" stroke-width="1" fill="none" fill-rule="evenodd"><g fill-rule="nonzero"><rect fill-opacity="0" fill="#FFFFFF" x="0" y="0" width="20" height="20"></rect><path d="M17.40979,2 C18.7907464,2 19.9108122,3.11538007 19.9949282,4.48390863 L20,4.64929199 L20,15.3846436 C20,16.7717541 18.932671,17.9093884 17.5741594,17.9948468 L17.40979,18 L2.60192871,18 C1.22141163,18 0.0918889356,16.9157037 0.0070447594,15.5498465 L0.00192871094,15.3846436 L0.00192871094,4.64929199 C0.00192871094,3.26201731 1.0780792,2.09315918 2.43749045,2.0052992 L2.60192871,2 L17.40979,2 Z M18,5.328 L10.6585046,11.7525767 C10.3128975,12.054983 9.8110564,12.0801835 9.43941026,11.8281783 L9.34149539,11.7525767 L2.00092871,5.33 L2.00192871,15.3846436 C2.00192871,15.691778 2.22233491,15.9445092 2.50545057,15.9919841 L2.60192871,16 L17.40979,16 C17.7014803,16 17.9461982,15.7810271 17.9922248,15.4857133 L18,15.3846436 L18,5.328 Z M16.4799287,4 L3.51892871,4 L10,9.671 L16.4799287,4 Z" fill="#1B1B24"></path></g></g></svg>