<svg height="20" viewBox="0 0 20 20" width="20" xmlns="http://www.w3.org/2000/svg"><g fill="none" fill-rule="evenodd"><path d="m19 15c.5522847 0 1 .4477153 1 1 0 .5128358-.3860402.9355072-.8833789.9932723l-.1166211.0067277h-18c-.55228475 0-1-.4477153-1-1 0-.5128358.38604019-.9355072.88337888-.9932723l.11662112-.0067277zm0-6c.5522847 0 1 .44771525 1 1 0 .5128358-.3860402.9355072-.8833789.9932723l-.1166211.0067277h-18c-.55228475 0-1-.4477153-1-1 0-.51283584.38604019-.93550716.88337888-.99327227l.11662112-.00672773zm0-6c.5522847 0 1 .44771525 1 1 0 .51283584-.3860402.93550716-.8833789.99327227l-.1166211.00672773h-18c-.55228475 0-1-.44771525-1-1 0-.51283584.38604019-.93550716.88337888-.99327227l.11662112-.00672773z" fill="#1b1b24" fill-rule="nonzero"/></g></svg>
