<?xml version="1.0" encoding="UTF-8"?>
<svg width="58px" height="58px" viewBox="0 0 58 58" version="1.1" xmlns="http://www.w3.org/2000/svg" xmlns:xlink="http://www.w3.org/1999/xlink">
    <title>Group 3</title>
    <g id="Symbols" stroke="none" stroke-width="1" fill="none" fill-rule="evenodd">
        <g id="Warenkorb/Rabatt" transform="translate(-35.000000, -20.000000)" fill="#D7D7D7" fill-rule="nonzero">
            <g id="Conponents-/-Cart-/-Item" transform="translate(0.000000, 0.000000)">
                <g id="Group-3" transform="translate(36.000000, 21.000000)">
                    <g id="percent" transform="translate(20.000000, 20.000000)">
                        <path d="M14.2928932,0.292893219 C14.6834175,-0.0976310729 15.3165825,-0.0976310729 15.7071068,0.292893219 C16.0675907,0.65337718 16.0953203,1.22060824 15.7902954,1.61289944 L15.7071068,1.70710678 L1.70710678,15.7071068 C1.31658249,16.0976311 0.683417511,16.0976311 0.292893219,15.7071068 C-0.0675907428,15.3466228 -0.0953202783,14.7793918 0.209704612,14.3871006 L0.292893219,14.2928932 L14.2928932,0.292893219 Z" id="Path"></path>
                        <path d="M2.5,-1 C0.567003376,-1 -1,0.567003376 -1,2.5 C-1,4.43299662 0.567003376,6 2.5,6 C4.43299662,6 6,4.43299662 6,2.5 C6,0.567003376 4.43299662,-1 2.5,-1 Z M2.5,1 C3.32842712,1 4,1.67157288 4,2.5 C4,3.32842712 3.32842712,4 2.5,4 C1.67157288,4 1,3.32842712 1,2.5 C1,1.67157288 1.67157288,1 2.5,1 Z" id="Oval"></path>
                        <path d="M13.5,10 C11.5670034,10 10,11.5670034 10,13.5 C10,15.4329966 11.5670034,17 13.5,17 C15.4329966,17 17,15.4329966 17,13.5 C17,11.5670034 15.4329966,10 13.5,10 Z M13.5,12 C14.3284271,12 15,12.6715729 15,13.5 C15,14.3284271 14.3284271,15 13.5,15 C12.6715729,15 12,14.3284271 12,13.5 C12,12.6715729 12.6715729,12 13.5,12 Z" id="Oval"></path>
                    </g>
                    <path d="M32.1320489,-0.707733075 L31.8495129,1.2722097 C30.582315,1.09138172 29.2970339,1 28,1 L28,-1 C29.3916406,-1 30.7713362,-0.901905546 32.1320489,-0.707733075 Z M40.0810085,1.62873738 L39.2469426,3.44652012 C38.0785768,2.9104307 36.8721474,2.45841357 35.6356006,2.09454459 L36.2001886,0.175888687 C37.5290618,0.566925853 38.8255384,1.05268129 40.0810085,1.62873738 Z M47.0402634,6.12553494 L45.7265522,7.63356774 C44.7556773,6.78779756 43.725779,6.01204715 42.6449508,5.31286206 L43.7312625,3.63359825 C44.8919451,4.38444101 45.9978269,5.21742441 47.0402634,6.12553494 Z M52.4302782,12.3679216 L50.7466137,13.4474 C50.0518866,12.3638329 49.2803919,11.3308916 48.4386418,10.3566788 L49.9519924,9.04909698 C50.8557931,10.0951251 51.6842146,11.2042848 52.4302782,12.3679216 Z M55.8677375,19.9495648 L53.9460498,20.5037459 C53.5888949,19.2652695 53.1434658,18.0565276 52.6137906,16.8854448 L54.436065,16.0612387 C55.0052352,17.3196426 55.4839148,18.6186147 55.8677375,19.9495648 Z M54.9998824,28.0805826 L55,28 C55,26.7783295 54.9189291,25.5670454 54.7583859,24.3714194 L56.7405963,24.1052573 C56.8785016,25.1322905 56.9617768,26.1698262 56.9895706,27.2148629 L56.9998739,28.0864211 L54.9998824,28.0805826 Z M55.8051966,36.2641929 L53.8878551,35.695157 C54.2529513,34.4649818 54.5301184,33.2069288 54.7164321,31.9282771 L56.6955326,32.216654 C56.4953647,33.5903857 56.1975345,34.9422276 55.8051966,36.2641929 Z M52.3363566,43.7776107 L50.6591625,42.6881063 C51.3601235,41.6090398 51.9832652,40.4811362 52.5232283,39.3126401 L54.3387583,40.1515982 C53.7586522,41.4069651 53.089259,42.6185853 52.3363566,43.7776107 Z M46.8329983,50.053318 L45.5335045,48.5330167 C46.5120913,47.6965591 47.4302914,46.7912818 48.2805677,45.8246413 L49.7822777,47.1455755 C48.8694084,48.1833751 47.8836332,49.1552765 46.8329983,50.053318 Z M39.8917289,54.4572869 L39.0707833,52.6335413 C40.2449041,52.1050194 41.3791326,51.4928796 42.465224,50.8023984 L43.5382362,52.4901913 C42.3716292,53.2318602 41.153176,53.8894558 39.8917289,54.4572869 Z M31.8665173,56.7443721 L31.6023018,54.7619014 C32.8832014,54.5911884 34.144295,54.3295279 35.3783792,53.9797508 L35.9237574,55.9039553 C34.5976251,56.2798216 33.2425744,56.560977 31.8665173,56.7443721 Z M23.6978349,56.6829424 L23.9921167,54.7047113 C25.2584913,54.8930973 26.5433292,54.9920299 27.8402563,54.9995377 L27.8286786,56.9995042 C26.4370439,56.9914481 25.0577351,56.8852412 23.6978349,56.6829424 Z M15.762917,54.2990862 L16.6077988,52.4863053 C17.7727294,53.0292438 18.9761426,53.4883635 20.2100775,53.8595398 L19.6339639,55.7747664 C18.3079022,55.3758777 17.0146794,54.8824944 15.762917,54.2990862 Z M8.82850744,49.7594533 L10.1512191,48.2593088 C11.1169878,49.1108491 12.1421957,49.8927414 13.2187665,50.5983945 L12.1223733,52.2710934 C10.9662809,51.5133169 9.8654507,50.6737499 8.82850744,49.7594533 Z M3.47721924,43.4868558 L5.16725803,42.4173845 C5.8556869,43.5052785 6.62122705,44.542957 7.45740872,45.5222969 L5.93640227,46.8209652 C5.03857056,45.7694204 4.21653124,44.6551583 3.47721924,43.4868558 Z M0.0845226829,35.8829909 L2.00952775,35.3404455 C2.35925629,36.5813172 2.79743639,37.7928671 3.32008992,38.9671897 L1.49289,39.7804181 C0.931258324,38.5185176 0.460365126,37.2165173 0.0845226829,35.8829909 Z M1.0010337,27.7611508 L1,28 C1,29.1803742 1.07568264,30.351073 1.22561522,31.5073506 L-0.757780005,31.7645342 C-0.918763788,30.5230299 -1,29.2664255 -1,28 L-0.99889133,27.743834 L1.0010337,27.7611508 Z M0.243981086,19.5718935 L2.15790481,20.1523209 C1.78544208,21.3804939 1.50080478,22.6369643 1.30696299,23.9144176 L-0.670401879,23.6143707 C-0.462140057,22.2418867 -0.156277238,20.8917207 0.243981086,19.5718935 Z M3.75880568,12.0768513 L5.4294455,13.1763796 C4.72191584,14.2514107 4.09192714,15.3757336 3.5448934,16.5410977 L1.73443511,15.6912502 C2.32212687,14.439271 2.9988622,13.2315208 3.75880568,12.0768513 Z M9.26263504,5.86529423 L10.555568,7.39117899 C9.57326759,8.22351487 8.65107148,9.12495763 7.79654307,10.088073 L6.30051092,8.76071175 C7.21794343,7.72669893 8.2080095,6.75891358 9.26263504,5.86529423 Z M16.2657298,1.47239941 L17.0757584,3.30102011 C15.8983612,3.82257462 14.7604293,4.42799824 13.6702045,5.11206569 L12.6072169,3.41794129 C13.7782856,2.68314793 15.0007407,2.03275473 16.2657298,1.47239941 Z M24.3056643,-0.766795474 L24.558009,1.21722119 C23.2758423,1.38029846 22.0131025,1.63439599 20.7769588,1.97672661 L20.2431805,0.0492721467 C21.5715063,-0.318586858 22.9282939,-0.591609368 24.3056643,-0.766795474 Z" id="Oval"></path>
                </g>
            </g>
        </g>
    </g>
</svg>