<svg height="20" viewBox="0 0 20 20" width="20" xmlns="http://www.w3.org/2000/svg"><path d="m9 0c4.9705627 0 9 4.02943725 9 9 0 2.124779-.7363102 4.0775836-1.9676926 5.6171757l3.6747994 3.6757175c.3905243.3905243.3905243 1.0236893 0 1.4142136-.360484.3604839-.927715.3882135-1.3200062.0831886l-.0942074-.0831886-3.6757175-3.6747994c-1.5395921 1.2313824-3.4923967 1.9676926-5.6171757 1.9676926-4.97056275 0-9-4.0294373-9-9 0-4.97056275 4.02943725-9 9-9zm0 2c-3.86599325 0-7 3.13400675-7 7 0 3.8659932 3.13400675 7 7 7 1.8904747 0 3.6059153-.74941 4.8654514-1.9673596.0231838-.032201.0492988-.0616041.0774418-.0897472l.0897472-.0774418c1.2179496-1.2595361 1.9673596-2.9749767 1.9673596-4.8654514 0-3.86599325-3.1340068-7-7-7z" fill="#212a49"/></svg>