<svg height="23" viewBox="0 0 20 23" width="20" xmlns="http://www.w3.org/2000/svg"><path d="m10 0c2.7614237 0 5 2.23857625 5 5h4c.5128358 0 .9355072.38604019.9932723.88337887l.0067277.11662113v14c0 1.5976809-1.24892 2.9036609-2.8237272 2.9949073l-.1762728.0050927h-14c-1.59768088 0-2.90366088-1.24892-2.99490731-2.8237272l-.00509269-.1762728v-14c0-.51283584.38604019-.93550716.88337888-.99327227l.11662112-.00672773h4c0-2.76142375 2.23857625-5 5-5zm8 7h-16v13c0 .4733869.32893365.8699473.77070917.9735893l.1126697.019683.11662113.0067277h14c.5128358 0 .9355072-.3860402.9932723-.8833789l.0067277-.1166211zm-8-5c-1.59768088 0-2.90366088 1.24891996-2.99490731 2.82372721l-.00509269.17627279h6c0-1.65685425-1.3431458-3-3-3z" fill="#212a49"/></svg>