<svg height="26" viewBox="0 0 32 26" width="32" xmlns="http://www.w3.org/2000/svg"><path d="m10.0637585 26c12.07628 0 18.6798642-10.0020179 18.6798642-18.67508217 0-.28409153-.0057879-.56690124-.0185343-.84843234 1.2819316-.92649127 2.3961832-2.08268693 3.2749116-3.39884376-1.1763316.52275147-2.4422631.87466562-3.7702768 1.03334712 1.3555337-.81260151 2.3961831-2.09804406 2.8870684-3.63046764-1.2684926.75181494-2.6733063 1.29824142-4.1690011 1.59320801-1.1980915-1.27584608-2.9037084-2.07372922-4.7923662-2.07372922-3.6256358 0-6.5658253 2.93943713-6.5658253 6.56286443 0 .51507236.0576 1.01607048.1702421 1.49659061-5.4566926-.27449183-10.29514207-2.88632859-13.53293256-6.85783102-.56384632.9700012-.88896841 2.09676332-.88896841 3.29902717 0 2.27720032 1.15905051 4.28758577 2.92162733 5.46361634-1.07712944-.03327148-2.08897998-.32888005-2.97346946-.82091831-.00096645.02753872-.00096645.05438714-.00096645.0838196 0 3.17873688 2.26306317 5.83280388 5.26725263 6.43425528-.55168525.1503636-1.13217158.2309829-1.73121683.2309829-.42240421 0-.83392842-.0415635-1.23393156-.1183696.83584735 2.6079977 3.25955048 4.5057698 6.13317997 4.5588784-2.24706317 1.760845-5.07781052 2.8095482-8.15431997 2.8095482-.52928633 0-1.05217052-.030098-1.56609579-.0908588 2.90562948 1.8619434 6.35590315 2.9483948 10.0640978 2.9483948" fill="#212a49"/></svg>