<svg height="20" viewBox="0 0 21 20" width="21" xmlns="http://www.w3.org/2000/svg"><path d="m10.0793085 0 .2737742.00374319c2.5495255.06899932 4.934546 1.08973256 6.7437603 2.89195661 1.8726871 1.86628255 2.9039891 4.34784495 2.903157 6.98614593-.0025049 5.44453817-4.452892 9.87352867-9.9207821 9.87352867-1.55628883-.0007783-3.09108389-.3650015-4.47064686-1.0589662l-.20907118-.1098054-5.39949986 1.4100618 1.44454899-5.2541668-.11093993-.1991965c-.67563459-1.2534359-1.06911106-2.6356606-1.1563978-4.0585467l-.01400897-.3054944-.00458326-.30654652c.00246821-5.36824252 4.33025159-9.74949394 9.6934677-9.87015983zm.0032098 1.99884766c-4.36459511 0-7.91563971 3.53269666-7.91724359 7.87484604-.00069966 1.5553558.38569863 2.8125698 1.2452789 4.241205l.15662008.2539871.02147062.144729-.73497654 2.6703895 2.76095276-.7199739.13786131.0193183c1.48526793.8775787 2.75049094 1.2716231 4.32355096 1.272363 4.3623714 0 7.9149056-3.5336854 7.9173083-7.87564597.0016-4.35328623-3.5361254-7.87962498-7.9108228-7.88121807zm-3.45173618 3.21742753.50003746.00885875.07428662.00027893c.23494698.00667261.41098859.12249296.55911269.42006061l.111648.25828818.64503954 1.55336734.03630134.08033079c.10081311.19933071.12100034.38802639.02052845.58801488l-.073119.14652684c-.02311429.04508512-.04369165.08217656-.06630379.11860319l-.06024695.08837389-.30085786.36278902-.111451.12521865-.03285934.03331408c-.13159838.13097329-.14330311.16232378-.07777771.27428142.31687383.54323626.76286865 1.14138434 1.31752942 1.63401924.39997236.3552841.79685061.6259977 1.20069771.8406478l.1956085.0975714.521569.2373374c.1713945.0855774.2253575.0790774.310373-.0177614l.2868142-.3349284.1906205-.2312821.1639803-.2073412.1149097-.1573962c.1982465-.2954614.4059239-.3190628.7597552-.1908902l.1035725.0423923.3663785.1670355.7444113.3563912.666943.3281548.1614966.0845757c.0817091.0499373.140496.1019378.1805351.1687179.1165667.1918081.0664533.7709969-.1259896 1.3077406-.2048354.5704862-1.1535536 1.1758108-1.7867747 1.2696254-.5657076.0835734-1.0798894.0661092-1.6141425-.1026656-.517771-.1637998-.9106546-.3045173-1.4041455-.5164933-.86179048-.3702972-1.67356618-.9303524-2.43054098-1.6303397-.37835467-.349871-.72582287-.7185379-1.04375535-1.0958163l-.2777439-.3413397-.25573294-.3380028-.3258504-.4502037c-.06766342-.0947127-.13321501-.1919349-.19921779-.29788449l-.09966293-.16624721-.10226198-.18400183c-.32793423-.61190076-.52512013-1.2301178-.52512013-1.82511343 0-.66960826.18252671-1.20961108.49654854-1.66348089.04771429-.06896361.09704449-.13392126.14938516-.19758196l.1309049-.1500212.12248776-.13182723c.22638818-.2468501.51511886-.36189697.78207936-.36189697z" fill="#212a49" transform="translate(.615385)"/></svg>