<svg height="20" viewBox="0 0 32 20" width="32" xmlns="http://www.w3.org/2000/svg"><path d="m15.990055 0s-10.00129295 0-12.51148425.5825377c-1.34404304.3353901-2.45075814 1.32379936-2.82630008 2.54180738-.65227067 2.24183327-.65227067 6.88448572-.65227067 6.88448572s0 4.6602767.65227067 6.8668247c.37554194 1.2179915 1.46249123 2.1887485 2.82630008 2.5241468 2.52995711.6001977 12.51148425.6001977 12.51148425.6001977s10.0211204 0 12.5312597-.5825367c1.3638186-.3353912 2.4507458-1.2884999 2.8065243-2.5241468.6721039-2.2242033.6721039-6.8668247.6721039-6.8668247s.0196922-4.66031345-.6721039-6.90214672c-.3557785-1.21800802-1.4427057-2.18874199-2.8065243-2.50648534-2.5101393-.61785974-12.5312597-.61785974-12.5312597-.61785974zm-3.190055 5.26315789 8.2962815 4.71559021-8.2962815 4.6961745z" fill="#212a49"/></svg>