<?xml version="1.0" encoding="utf-8"?>
<!-- Generator: Adobe Illustrator 23.0.1, SVG Export Plug-In . SVG Version: 6.00 Build 0)  -->
<svg version="1.1" id="Ebene_1" xmlns="http://www.w3.org/2000/svg" xmlns:xlink="http://www.w3.org/1999/xlink" x="0px" y="0px"
	 viewBox="0 0 200 45.8" style="enable-background:new 0 0 200 45.8;" xml:space="preserve">
<style type="text/css">
	.st0{fill-rule:evenodd;clip-rule:evenodd;fill:#FFFFFF;}
</style>
<path class="st0" d="M171.2,14.55c-8.95,0-15.93,6.74-15.93,15.63s6.92,15.63,16.76,15.63c2.92,0,5.65-0.59,8.21-1.79
	c2.12-0.99,2.92-3.61,1.82-5.67c-0.98-1.85-3.16-2.63-5.14-1.95c-1.43,0.49-2.93,0.76-4.53,0.76c-1.98,0-3.63-0.41-4.86-1.26
	c-0.94-0.65-0.46-2.14,0.69-2.14h12.16c2.79,0,5.07-2.28,5.08-5.07C185.45,21.11,180.02,14.55,171.2,14.55z M174.26,27.07h-7.12
	c-0.9,0-1.49-0.99-1.03-1.77c1.05-1.75,2.74-2.71,4.67-2.71c2.07,0,3.89,1.08,4.62,2.89C175.7,26.25,175.08,27.07,174.26,27.07z
	 M151.27,5.18v35.41c0,2.88-2.3,5.21-5.13,5.21c-2.83,0-5.13-2.33-5.13-5.21V5.18c0-2.88,2.3-5.13,5.13-5.13
	C148.98,0.05,151.27,2.3,151.27,5.18z M63.35,20.39v10.8c0,8.89-6.2,14.61-14.55,14.61c-8.41,0-14.61-5.73-14.61-14.61v-10.8
	c0-2.83,2.3-5.13,5.13-5.13c2.83,0,5.13,2.3,5.13,5.13v11.63c0,2.56,1.85,4.35,4.35,4.35c2.45,0,4.29-1.79,4.29-4.35V20.39
	c0-2.83,2.3-5.13,5.13-5.13C61.05,15.26,63.35,17.56,63.35,20.39z M18.91,28.92c0-2.68-1.85-4.41-4.35-4.41
	c-2.51,0-4.29,1.73-4.29,4.41v11.75c0,2.83-2.3,5.13-5.13,5.13C2.3,45.8,0,43.51,0,40.67l0.03-35.5c0-2.83,2.3-5.13,5.13-5.13
	c2.83,0,5.13,2.3,5.13,5.13l-0.03,8.26c0,1.83,1.81,3.17,3.53,2.55c1.28-0.47,2.71-0.73,4.23-0.73c6.62,0,11.15,4.83,11.15,12.17
	v13.24c0,2.83-2.3,5.13-5.13,5.13c-2.83,0-5.13-2.3-5.13-5.13V28.92z M122.7,14.55c-1.53,0-2.91,0.23-4.14,0.65
	c-1.72,0.59-3.5-0.72-3.5-2.54V5.18c0-2.83-2.3-5.13-5.13-5.13c-2.83,0-5.13,2.3-5.13,5.13v32.14c0,4.68,3.8,8.48,8.48,8.48
	c0.49,0,0.88-0.4,0.88-0.88c0-0.76,0.88-1.86,1.46-1.37c1.78,1.49,4.14,2.26,7.07,2.26c8.35,0,14.31-6.44,14.31-15.57
	S131.05,14.55,122.7,14.55z M120.67,36.5c-2.86,0-5.78-1.91-5.78-6.26c0-4.29,2.86-6.38,5.78-6.38c2.98,0,5.85,2.15,5.85,6.32
	C126.52,34.35,123.71,36.5,120.67,36.5z M100.81,30.24c0-9.13-5.96-15.69-14.31-15.69c-1.52,0-2.9,0.23-4.12,0.65
	c-1.72,0.59-3.51-0.72-3.51-2.55V5.18c0-2.83-2.3-5.13-5.13-5.13c-2.83,0-5.13,2.3-5.13,5.13v32.14c0,4.68,3.8,8.48,8.48,8.48
	c0.49,0,0.88-0.4,0.88-0.88c0-0.76,0.88-1.86,1.46-1.37c1.78,1.49,4.14,2.26,7.07,2.26C94.84,45.8,100.81,39.36,100.81,30.24z
	 M84.46,36.5c-2.86,0-5.78-1.91-5.78-6.26c0-4.29,2.86-6.38,5.78-6.38c2.98,0,5.85,2.15,5.85,6.32
	C90.31,34.35,87.51,36.5,84.46,36.5z M192.62,23.29c-0.21,0.17-0.52,0.23-0.84,0.13c-0.58-0.17-1.02-0.77-0.99-1.32
	c0.01-0.12,0.01-0.91,0-1.18c0-3.53-1.27-6.4-3.29-8.42c-2.02-2.02-4.88-3.29-8.42-3.29c-0.27-0.01-1.06-0.01-1.18,0
	c-0.56,0.04-1.15-0.41-1.32-0.99c-0.09-0.32-0.04-0.63,0.13-0.84c2.49-3.01,8.53-8.12,20.72-7.29c0.61,0.05,1.22,0.34,1.68,0.8
	c0.45,0.46,0.75,1.07,0.8,1.68C200.74,14.76,195.63,20.8,192.62,23.29z"/>
</svg>
