<svg width="456" height="112" viewBox="0 0 456 112" fill="none" xmlns="http://www.w3.org/2000/svg">
<path fill-rule="evenodd" clip-rule="evenodd" d="M79.4993 0L111.941 21.7048V96.804L76.2009 112V37.108L43.8325 14.8432L79.4993 0ZM35.6667 18.3031L68.1084 40.0079V90.0571L32.3683 105.253V55.4111L0 33.1463L35.6667 18.3031ZM430.483 44.7759C434.45 44.7818 438.021 45.3817 441.195 46.5783C444.368 47.773 447.053 49.5038 449.247 51.7663C451.444 54.0302 453.118 56.798 454.275 60.0666C455.365 63.1554 455.94 66.6111 455.996 70.4326L456 71.1108L455.997 72.7567C455.997 72.7963 455.973 72.8304 455.939 72.8448L455.902 72.8519L421.2 72.805C421.146 72.805 421.102 72.8519 421.102 72.906C421.124 79.9865 424.476 83.5299 431.162 83.5396C434.746 83.5441 437.457 82.0971 439.292 79.196C439.303 79.178 439.32 79.1646 439.339 79.1576L439.37 79.1523L455.215 79.1741C455.28 79.1741 455.327 79.2398 455.308 79.3022C452.031 89.9654 443.947 95.2867 431.054 95.2694C427.085 95.2635 423.453 94.6636 420.158 93.4664C416.862 92.2717 414.04 90.5724 411.693 88.3697C409.344 86.1671 407.532 83.5383 406.254 80.4815C404.976 77.4253 404.34 74.0035 404.345 70.2161C404.351 66.3077 404.964 62.7803 406.191 59.634C407.416 56.4903 409.16 53.819 411.422 51.6228C413.683 49.4272 416.419 47.735 419.626 46.5493C422.835 45.3611 426.452 44.7708 430.483 44.7759ZM203.348 46.2075L219.734 46.2294C219.773 46.2294 219.807 46.2536 219.822 46.288L219.829 46.3253L219.793 72.7135C219.786 78.5169 222.589 81.4225 228.207 81.4302C233.722 81.4378 236.535 78.6445 236.643 73.0503L236.646 72.7367L236.682 46.3484C236.682 46.3088 236.706 46.2747 236.74 46.2601L236.778 46.2525L253.163 46.2751C253.204 46.2751 253.237 46.2993 253.252 46.3337L253.259 46.371L253.219 75.9654C253.21 82.321 251.112 87.0823 246.926 90.2524C242.738 93.4225 236.493 95.0034 228.189 94.9926C219.885 94.9809 213.642 93.3833 209.466 90.2016C205.386 87.0956 203.303 82.4795 203.214 76.3484L203.211 75.8971L203.252 46.3027C203.252 46.2631 203.276 46.229 203.311 46.2147L203.348 46.2075ZM337.921 17.0813L337.951 17.0762L337.998 17.0575C338.004 17.0575 338.008 17.0575 338.012 17.0608L338.017 17.0813L337.971 50.8345C337.971 50.9194 338.072 50.9581 338.132 50.8976C342.017 46.9222 346.852 44.9371 352.633 44.9455C356.114 44.95 359.302 45.6123 362.2 46.928C365.099 48.2469 367.57 50.0215 369.612 52.2532C371.654 54.4861 373.254 57.1149 374.41 60.1414C375.566 63.1661 376.141 66.3902 376.137 69.8101C376.132 73.2931 375.533 76.5617 374.338 79.614C373.143 82.6669 371.475 85.3228 369.336 87.5782C367.195 89.8375 364.673 91.6199 361.772 92.9291C358.869 94.2377 355.739 94.891 352.382 94.8866C346.37 94.8782 341.604 92.7122 338.085 88.3834C338.038 88.3261 337.955 88.3411 337.928 88.3995L337.92 88.4394L337.913 93.3057C337.913 93.3452 337.889 93.3794 337.854 93.3937L337.817 93.4009L321.431 93.379C321.391 93.379 321.357 93.3548 321.342 93.3204L321.335 93.2831L321.438 17.0813C321.438 17.0599 321.445 17.0556 321.457 17.0575L321.504 17.0762L321.534 17.0813H337.921ZM277.381 17.0811L277.412 17.076L277.459 17.0574C277.465 17.0574 277.469 17.0574 277.472 17.0606L277.477 17.0811L277.432 50.7513C277.432 50.8369 277.533 50.8761 277.593 50.815C281.478 46.8396 286.313 44.8545 292.095 44.8629C295.574 44.8674 298.763 45.5297 301.662 46.8454C304.56 48.1637 307.03 49.9389 309.074 52.1706C311.116 54.4035 312.716 57.0323 313.872 60.0582C315.027 63.0841 315.603 66.307 315.598 69.7282C315.594 73.2105 314.994 76.4791 313.799 79.5314C312.605 82.585 310.936 85.2402 308.796 87.4956C306.655 89.7543 304.135 91.5379 301.233 92.8465C298.33 94.1551 295.201 94.8085 291.843 94.804C285.831 94.7956 281.065 92.6296 277.546 88.3009C277.499 88.2435 277.416 88.2589 277.389 88.3171L277.381 88.3569L277.374 93.2231C277.374 93.2627 277.349 93.2968 277.315 93.3111L277.278 93.3183L260.892 93.2964C260.852 93.2964 260.818 93.2722 260.804 93.2378L260.796 93.2005L260.9 17.0811C260.9 17.0597 260.907 17.0555 260.918 17.0574L260.965 17.076L260.996 17.0811H277.381ZM162.624 17.0809L162.654 17.0758L162.7 17.0574C162.706 17.0574 162.711 17.0574 162.714 17.0606L162.719 17.0809L162.672 51.8505C162.672 51.9393 162.783 51.9747 162.84 51.9065C165.048 49.2719 167.283 47.4947 169.548 46.5736C171.87 45.6306 174.587 45.1614 177.701 45.1652C183.623 45.1736 188.095 46.8137 191.112 50.0855C194.039 53.2588 195.543 57.5076 195.625 62.8314L195.628 63.3337L195.588 93.4836C195.588 93.5047 195.581 93.5089 195.569 93.5064L195.522 93.4886L195.492 93.4836H179.105L179.075 93.4887L179.028 93.5073C179.022 93.5073 179.018 93.5073 179.015 93.5041L179.01 93.4836L179.042 69.4499C179.045 67.067 178.865 65.1431 178.501 63.6774C178.136 62.2092 177.527 61.0782 176.673 60.2833C175.209 58.9992 173.439 58.3548 171.364 58.3516C168.555 58.3477 166.401 59.1865 164.904 60.862C163.469 62.4695 162.72 64.7308 162.655 67.6514L162.65 68.0538L162.615 93.4836C162.615 93.5049 162.608 93.5092 162.597 93.5073L162.55 93.4887L162.519 93.4836H146.134L146.104 93.4886L146.057 93.5064C146.051 93.5073 146.046 93.5073 146.043 93.5038L146.038 93.4836L146.141 17.0809C146.141 17.0598 146.148 17.0556 146.16 17.0574L146.207 17.0758L146.238 17.0809H162.624ZM398.459 17.081L398.49 17.0759L398.537 17.0573C398.542 17.0573 398.547 17.0573 398.55 17.0605L398.555 17.081L398.452 93.4837C398.452 93.5051 398.445 93.5093 398.433 93.5074L398.386 93.4888L398.356 93.4837H381.969L381.939 93.4888L381.892 93.5065C381.886 93.5074 381.882 93.5074 381.879 93.504L381.874 93.4837L381.977 17.081C381.977 17.0597 381.984 17.0554 381.995 17.0573L382.043 17.0759L382.073 17.081H398.459ZM348.126 59.2351C346.66 59.2332 345.286 59.5055 344.003 60.0526C342.719 60.601 341.604 61.3651 340.656 62.3389C339.708 63.3167 338.944 64.4605 338.362 65.7723C337.78 67.0874 337.489 68.4758 337.486 69.9414C337.484 71.4064 337.758 72.7833 338.305 74.0655C338.854 75.3502 339.614 76.4657 340.59 77.4132C341.565 78.3633 342.708 79.128 344.021 79.7086C345.333 80.2924 346.723 80.5827 348.188 80.5847C349.653 80.5872 351.027 80.3149 352.31 79.7672C353.594 79.2188 354.708 78.4573 355.656 77.4808C356.377 76.738 356.992 75.907 357.501 74.9866C358.439 73.2937 358.915 71.3504 358.809 69.4181C358.742 68.1874 358.475 67.0127 358.008 65.8908C357.461 64.5783 356.697 63.4313 355.723 62.4509C354.747 61.4745 353.619 60.6943 352.337 60.1112C351.056 59.5286 349.651 59.2371 348.126 59.2351ZM287.587 59.1525C286.121 59.1506 284.747 59.4229 283.464 59.97C282.181 60.5184 281.066 61.2825 280.118 62.2564C279.169 63.2341 278.405 64.3786 277.823 65.6897C277.24 67.0041 276.95 68.3932 276.948 69.8588C276.946 71.3239 277.219 72.7007 277.766 73.9829C278.315 75.2677 279.075 76.3832 280.051 77.3307C281.027 78.2807 282.17 79.0454 283.483 79.6267C284.795 80.2098 286.184 80.5001 287.649 80.5021C289.115 80.5046 290.489 80.2324 291.772 79.6846C293.055 79.1362 294.169 78.3747 295.118 77.3982C295.839 76.6548 296.454 75.8232 296.964 74.9021C297.902 73.2066 298.378 71.2601 298.27 69.3252C298.202 68.0984 297.935 66.9269 297.469 65.8082C296.922 64.4957 296.159 63.3487 295.184 62.3684C294.209 61.3919 293.08 60.6118 291.799 60.0286C290.517 59.4461 289.112 59.1545 287.587 59.1525ZM430.925 55.4977C428.361 55.4945 426.267 56.1646 424.649 57.506C423.055 58.8262 422.036 60.6793 421.595 63.0648C421.586 63.1127 421.614 63.1598 421.657 63.1767L421.691 63.1833L440.405 63.209C440.469 63.209 440.517 63.1459 440.501 63.0841C439.945 60.8203 438.826 58.9981 437.15 57.6148C435.442 56.2077 433.367 55.501 430.925 55.4977Z" fill="#A20158"/>
</svg>
