<?xml version="1.0" encoding="UTF-8"?>
<svg width="208px" height="208px" viewBox="0 0 208 208" version="1.1" xmlns="http://www.w3.org/2000/svg" xmlns:xlink="http://www.w3.org/1999/xlink">
    <!-- Generator: Sketch 52.2 (67145) - http://www.bohemiancoding.com/sketch -->
    <title>Icon</title>
    <desc>Created with Sketch.</desc>
    <defs>
        <linearGradient x1="101.999998%" y1="100.999999%" x2="50%" y2="0%" id="linearGradient-1">
            <stop stop-color="#880E4F" offset="0%"></stop>
            <stop stop-color="#880E4F" offset="50.1908218%"></stop>
            <stop stop-color="#D81B60" offset="100%"></stop>
        </linearGradient>
        <path d="M25.638852,-8.14126767e-15 L94.361148,1.03584031e-15 C103.276335,-6.01853049e-16 106.509198,0.928256111 109.768457,2.67132704 C113.027716,4.41439796 115.585602,6.97228371 117.328673,10.231543 C119.071744,13.4908022 120,16.7236646 120,25.638852 L120,94.361148 C120,103.276335 119.071744,106.509198 117.328673,109.768457 C115.585602,113.027716 113.027716,115.585602 109.768457,117.328673 C106.509198,119.071744 103.276335,120 94.361148,120 L25.638852,120 C16.7236646,120 13.4908022,119.071744 10.231543,117.328673 C6.97228371,115.585602 4.41439796,113.027716 2.67132704,109.768457 C0.928256111,106.509198 -6.70419199e-15,103.276335 -7.79598756e-15,94.361148 L6.90560205e-16,25.638852 C-4.01235366e-16,16.7236646 0.928256111,13.4908022 2.67132704,10.231543 C4.41439796,6.97228371 6.97228371,4.41439796 10.231543,2.67132704 C13.4908022,0.928256111 16.7236646,-6.50357431e-15 25.638852,-8.14126767e-15 Z" id="path-2"></path>
        <filter x="-57.9%" y="-52.1%" width="215.8%" height="215.8%" filterUnits="objectBoundingBox" id="filter-3">
            <feOffset dx="0" dy="2" in="SourceAlpha" result="shadowOffsetOuter1"></feOffset>
            <feGaussianBlur stdDeviation="2" in="shadowOffsetOuter1" result="shadowBlurOuter1"></feGaussianBlur>
            <feColorMatrix values="0 0 0 0 0   0 0 0 0 0   0 0 0 0 0  0 0 0 0.1 0" type="matrix" in="shadowBlurOuter1" result="shadowMatrixOuter1"></feColorMatrix>
            <feOffset dx="0" dy="7" in="SourceAlpha" result="shadowOffsetOuter2"></feOffset>
            <feGaussianBlur stdDeviation="22" in="shadowOffsetOuter2" result="shadowBlurOuter2"></feGaussianBlur>
            <feColorMatrix values="0 0 0 0 0   0 0 0 0 0   0 0 0 0 0  0 0 0 0.2 0" type="matrix" in="shadowBlurOuter2" result="shadowMatrixOuter2"></feColorMatrix>
            <feMerge>
                <feMergeNode in="shadowMatrixOuter1"></feMergeNode>
                <feMergeNode in="shadowMatrixOuter2"></feMergeNode>
            </feMerge>
        </filter>
        <filter x="-37.1%" y="-31.3%" width="174.2%" height="174.2%" filterUnits="objectBoundingBox" id="filter-4">
            <feOffset dx="0" dy="1" in="SourceAlpha" result="shadowOffsetInner1"></feOffset>
            <feComposite in="shadowOffsetInner1" in2="SourceAlpha" operator="arithmetic" k2="-1" k3="1" result="shadowInnerInner1"></feComposite>
            <feColorMatrix values="0 0 0 0 0.980392157   0 0 0 0 0.984313725   0 0 0 0 0.996078431  0 0 0 0.3 0" type="matrix" in="shadowInnerInner1"></feColorMatrix>
        </filter>
    </defs>
    <g id="Symbols" stroke="none" stroke-width="1" fill="none" fill-rule="evenodd">
        <g id="Icon" transform="translate(44.000000, 37.000000)">
            <g>
                <g id="Rectangle" fill-rule="nonzero">
                    <use fill="black" fill-opacity="1" filter="url(#filter-3)" xlink:href="#path-2"></use>
                    <use fill="url(#linearGradient-1)" xlink:href="#path-2"></use>
                    <use fill="black" fill-opacity="1" filter="url(#filter-4)" xlink:href="#path-2"></use>
                </g>
                <g id="Group" transform="translate(20.000000, 31.000000)" fill="#FFFFFF">
                    <path d="M53.3442743,17.3710274 C42.720425,29.5786993 32.2810299,30.4220449 27.0950307,29.8810977 C26.4299316,29.7746818 25.9581546,28.9969593 26.0415137,28.1447457 C26.0831933,27.7270635 26.2543454,27.3475136 26.5177247,27.094776 C28.3046242,25.499425 29.8982016,23.573298 31.2452489,21.3802447 C33.514567,17.6672182 33.514567,12.4501811 31.2452489,8.7371546 C29.9035224,6.50951608 28.3108318,4.5514644 26.5177247,2.92684905 C25.9687962,2.43467573 25.8348896,1.46451788 26.2197603,0.761286451 C26.428158,0.379076181 26.7607075,0.136980117 27.124295,0.102394965 C32.2739355,-0.389778353 42.7124438,0.453567278 53.3442743,12.6514844 C54.3614325,13.8140776 54.4501124,15.8138088 53.5420304,17.117403 C53.4799545,17.2060829 53.4143314,17.2912155 53.3442743,17.3710274" id="Fill-12"></path>
                    <path d="M7.0735,43.473 C7.5595,43.473 7.9105,43.527 8.2615,43.635 L8.2615,46.848 L7.2895,46.848 C5.1835,46.848 3.6985,47.928 3.6985,50.331 L3.6985,57 L0.0535,57 L0.0535,43.635 L3.4015,43.635 L3.4015,45.228 C4.2925,44.094 5.6155,43.473 7.0735,43.473 Z M16.9285,43.338 C20.8705,43.338 24.1105,46.362 24.1105,50.304 C24.1105,54.273 20.8705,57.297 16.9015,57.297 C12.9325,57.297 9.7735,54.273 9.7735,50.304 C9.7735,46.362 12.9325,43.338 16.9285,43.338 Z M16.9285,46.659 C14.9035,46.659 13.4725,48.225 13.4725,50.331 C13.4725,52.437 14.9035,53.949 16.9285,53.949 C18.8995,53.949 20.3845,52.41 20.3845,50.331 C20.3845,48.225 18.8995,46.659 16.9285,46.659 Z M33.3445,43.338 C36.0175,43.338 38.0425,44.634 39.1495,46.632 L36.6115,48.603 C35.8555,47.469 34.8835,46.659 33.3985,46.659 C31.3195,46.659 29.8885,48.225 29.8885,50.304 C29.8885,52.41 31.3195,53.976 33.3985,53.976 C34.8565,53.976 35.8285,53.166 36.6115,52.059 L39.1495,54.003 C38.0425,56.001 35.9905,57.324 33.3445,57.324 C29.3485,57.324 26.1895,54.273 26.1895,50.304 C26.1895,46.362 29.3485,43.338 33.3445,43.338 Z M55.0255,57 L50.8675,57 L45.4945,49.602 L45.4945,57 L41.8495,57 L41.8495,36.75 L45.4945,36.75 L45.4945,49.332 L50.3005,43.635 L54.6205,43.635 L49.5985,49.548 L55.0255,57 Z M69.4975,49.548 C69.4975,50.304 69.3625,51.087 69.2545,51.546 L59.8855,51.546 C60.3175,53.247 61.6945,54.192 63.6385,54.192 C65.0965,54.192 66.2845,53.679 67.3645,52.842 L68.8765,55.326 C67.3645,56.595 65.5825,57.324 63.5305,57.324 C59.2915,57.324 56.2135,54.273 56.2135,50.331 C56.2135,46.389 59.2645,43.338 63.2065,43.338 C66.9595,43.338 69.4975,46.092 69.4975,49.548 Z M63.0715,46.281 C61.5325,46.281 60.2905,47.307 59.8855,48.981 L65.9605,48.981 C65.9335,47.28 64.6105,46.281 63.0715,46.281 Z M79.1905,54.057 C79.6225,54.057 80.2165,54.003 80.9185,53.949 L80.9185,57 C80.1625,57.189 79.3525,57.324 78.4075,57.324 C75.1135,57.324 73.0615,55.731 73.0615,52.302 L73.0615,46.713 L70.9555,46.713 L70.9555,43.635 L73.0615,43.635 L73.0615,40.26 L76.7065,40.26 L76.7065,43.635 L80.4865,43.635 L80.4865,46.713 L76.7065,46.713 L76.7065,51.978 C76.7065,53.517 77.5165,54.057 79.1905,54.057 Z" id="rocket"></path>
                </g>
            </g>
        </g>
    </g>
</svg>
