<svg height="22" viewBox="0 0 20 22" width="20" xmlns="http://www.w3.org/2000/svg"><path d="m10 12c5.7087832 0 9.1239443 3.0356988 9.9891202 8.8528907.0842476.5664562-.321919 1.0790086-.876357 1.1408649l-.1127632.0062444h-18c-.61086603 0-1.07898432-.5428893-.98912024-1.1471093.86517592-5.8171919 4.28033707-8.8528907 9.98912024-8.8528907zm0 2c-4.20428136 0-6.71567197 1.8347792-7.71711238 5.6857386l-.07788762.3142614h15.589l-.0786338-.3209683c-.9536305-3.6584735-3.2717921-5.4951629-7.1116278-5.6658888l-.3063092-.0100201zm0-14c2.7614237 0 5 2.23857625 5 5s-2.2385763 5-5 5c-2.76142375 0-5-2.23857625-5-5s2.23857625-5 5-5zm0 2c-1.65685425 0-3 1.34314575-3 3s1.34314575 3 3 3c1.6568542 0 3-1.34314575 3-3s-1.3431458-3-3-3z" fill="#212a49"/></svg>