<svg height="32" viewBox="0 0 32 32" width="32" xmlns="http://www.w3.org/2000/svg"><path d="m29.6352586 0c1.2406953 0 2.2582486.92614813 2.3569022 2.10426644l.0078392.18801432v27.41543844c0 1.2023678-.9555186 2.1890202-2.170798 2.2846795l-.1939434.0076013h-27.27051715c-1.24073624 0-2.25825278-.926534-2.3569026-2.1043243l-.00783885-.1879565v-27.41543844c0-1.20277395.95547973-2.18906078 2.17079216-2.28468253l.19394929-.00759823zm-7.5813047 11.1304348c-2.2719947 0-3.4733459 1.0574886-4.1906328 2.0009296l-.1922741.2654392-.1360976.2032173.0006039-2.1186928h-5.0138142l.0165337.8048494.012123 2.6254896-.0286567 11.5231155h5.0136803v-8.3506419c0-.4469133.0325842-.8933842.1649742-1.2128608.3624433-.8929417 1.1874036-1.8177426 2.5724549-1.8177426 1.8142252 0 2.5399599 1.3712717 2.5399599 3.3814967v7.9997486h5.0132786v-8.5740986c0-4.59303-2.4734972-6.7302492-5.7721331-6.7302492zm-12.64018643 1.2229644h-4.94739334v14.0813834h4.94739334zm-2.440993-6.78818181c-1.69235428 0-2.79886143 1.05129107-2.79886143 2.43301171 0 1.28987993.97822299 2.3337379 2.51117367 2.425969l.25487398.006626c1.72534424 0 2.79916974-1.08129222 2.79916974-2.432595-.0321531-1.38172064-1.0738255-2.43301171-2.76635596-2.43301171z" fill="#212a49"/></svg>